<?xml version="1.0" encoding="utf-8"?>
<!-- Generator: Adobe Illustrator 22.0.1, SVG Export Plug-In . SVG Version: 6.00 Build 0)  -->
<svg version="1.1" id="圖層_1" xmlns="http://www.w3.org/2000/svg" xmlns:xlink="http://www.w3.org/1999/xlink" x="0px" y="0px"
	 viewBox="0 0 512 512" style="enable-background:new 0 0 512 512;" xml:space="preserve">
<style type="text/css">
	.st0{fill:#94E2F7;}
	.st1{fill:#BDF3FF;}
	.st2{fill:#6EC5D3;}
	.st3{fill:#52ACB5;}
	.st4{fill:#61706F;}
	.st5{fill:#7F665F;}
	.st6{fill:#6D5F60;}
	.st7{fill:#5B4D4C;}
	.st8{fill:#3F3D4A;}
	.st9{fill:#2F2D3F;}
	.st10{fill:#225656;}
	.st11{fill:#1D3C3D;}
	.st12{fill:#2C5F60;}
	.st13{fill:#0A3331;}
	.st14{fill:#1D4949;}
	.st15{fill:#69645E;}
	.st16{fill:#112828;}
	.st17{fill:#8E787A;}
	.st18{fill:#284749;}
	.st19{fill:#6D5457;}
	.st20{fill:#5F5D60;}
	.st21{fill:#77665E;}
	.st22{fill:#48424A;}
	.st23{fill:#85645E;}
	.st24{fill:#633B36;}
</style>
<g>
	<path class="st0" d="M436,195.6C436,94,355.4,11.7,255.9,11.7C156.5,11.7,75.9,94,75.9,195.6c0,33.5,0,87.5,0,121
		c0,101.6,80.6,183.9,180.1,183.9c99.4,0,180.1-82.3,180.1-183.9C436,283.1,436,229.1,436,195.6z"/>
	<path class="st1" d="M348.2,195.4c5.8-1.5,54.9-1.1,87.8-1.1c-0.1-8.4-0.7-16.6-1.8-24.7c-21.5-0.7-71.6-2.1-71.6-2.1
		c-31-1.6-63.3-3-92,9.2c-8.3,3.5-16.5,8.5-21,16.4c-1.5,2.7-2.6,6.1-1.4,8.9c0.8,2.1,2.7,3.6,4.6,4.9c6.5,4.5,13.9,7.7,21.6,9.5
		c3.7,0.9,7.7,1.4,10.8,3.6c3.2,2.2,5.3,6.7,3.4,10.1c-1.1,2-3.1,3.1-5.1,4.1c-21.6,10.6-46.4,11.5-70.4,12.7
		c-33.1,1.7-91.7,4.5-137.3,7.7c0,10.6,0,21.2,0,31.3c13.3,0.1,25.4,0.2,29.4,0.3c72.9,1.6,146.1,3.3,218.3-6.9
		c8.2-1.2,16.7-2.6,23.7-7.1c7-4.5,12.3-12.9,10.8-21.3c-2.8-15.5-25.9-21.6-26.2-37.3C331.8,204.8,339.8,197.7,348.2,195.4z"/>
	<path id="XMLID_2802_" class="st2" d="M436,317.5v1.8c-0.1,9.7-0.9,19.3-2.5,28.6c-1.2,7.4-2.9,14.6-5,21.7
		c-2.8,9.5-6.2,18.6-10.4,27.4c-58.4-1.9-116.8-9-175.3-9.1c-11.5,0-23.4,0.1-33.7-4.8c1-6.3,10.7-7.6,12.3-13.7
		c0.4-1.7,0.1-3.5,0.6-5.2c0.5-2.1,2.1-3.7,3.6-5.2c13.9-13.3,32.1-21,50.6-25.3c7.5-1.7,15.2-2.9,22.3-6
		c7.7-3.3,14.6-8.8,22.6-11.3c12.2-3.8,25.3-0.5,38-0.9c7.8-0.2,15.6-1.8,23.4-1.2c7.3,0.6,14.3,3.1,21.6,3.6
		c11.7,0.8,23.5-4.1,31.5-12.8C435.9,309.2,436,313.4,436,317.5z"/>
	<path id="XMLID_2801_" class="st3" d="M420.1,392.7c-0.6,1.4-1.3,2.9-2,4.3c-1.1,2.4-2.3,4.8-3.6,7.1c-60.5,0.5-121,0.8-181.4,0.8
		c-42,0-83.9-0.1-125.8-1.9c-3.6-0.1-7.3-0.3-10.9-0.5c-5.5-10.6-10-21.9-13.3-33.6c-1-3.4-1.9-6.8-2.7-10.3
		c-0.1-0.2-0.1-0.5-0.2-0.7v0c-1-4.4-1.8-8.8-2.4-13.2c0-0.2-0.1-0.5-0.1-0.8c-0.6-4.4-1.1-8.7-1.4-13.2c6.7-2.5,14.2-2.1,20.4,1.9
		c3.8,2.4,7.1,5.9,11.2,7.4c10.2,3.7,20.8-6.5,31.4-4.9c9.9,1.4,17.8,12.8,27.7,11.8c8.8-1,15.1-11.5,24-12.9
		c7.2-1.1,14.4,4.2,21.6,2.6c3.2-0.7,6-2.8,8.9-4.6c13.2-8,29.4-9,43.2-2.6c6.2,2.9,12.1,7.2,18.5,9.2c16.2,5.1,35.3-4.2,49.3,6.6
		c8,6.2,12.6,18,21.5,22.1c5.7,2.6,12.1,1.5,18.1,2.7c7.7,1.5,14.5,6.7,21.4,10.9C402,385.9,411,389.7,420.1,392.7z"/>
	<path id="XMLID_2800_" class="st4" d="M415.4,402.6c-0.3,0.5-0.5,1-0.8,1.5c-11,20.9-26,39.4-43.8,54.4c-0.3,0.2-0.6,0.5-0.9,0.7
		c-8.2,6.8-16.9,12.9-26.2,18.2c-0.7,0.4-1.4,0.8-2.1,1.1c-8.5,4.7-17.4,8.7-26.7,12c-18.5,6.5-38.3,10-59,10
		c-26,0-50.7-5.6-73.1-15.7c-1.1-0.5-2.2-1-3.3-1.5c-0.9-0.4-1.8-0.9-2.8-1.4c-1.8-0.9-3.7-1.9-5.5-2.9
		c-11.5-6.2-22.3-13.7-32.1-22.2c-1.5-1.2-2.9-2.5-4.3-3.8c-0.4-0.4-0.8-0.8-1.2-1.1c-10-9.4-18.9-19.9-26.6-31.3
		c-0.3-0.4-0.5-0.7-0.8-1.1c-0.6-1-1.2-1.9-1.8-2.8c-2.9-4.6-5.6-9.3-8.1-14.1c-1.6-3.2-3.2-6.4-4.6-9.7c34.3-0.4,68.7,0.8,103,2
		C268.3,397.4,341.9,400,415.4,402.6z"/>
	<g id="XMLID_2797_">
		<polygon id="XMLID_2799_" class="st4" points="385.9,394 375.7,394 375.7,377.1 362.5,377.1 362.5,405.2 373.7,405.2 375.7,405.2 
			385.9,405.2 386.9,405.2 399.1,405.2 399.1,385 385.9,385 		"/>
		<path id="XMLID_2798_" class="st4" d="M415.8,367.3v34.4c-0.1,0.3-0.3,0.6-0.4,0.9c-0.3,0.5-0.5,1-0.8,1.5
			c-0.2,0.4-0.4,0.7-0.6,1.1h-11.3v-37.9H415.8z"/>
	</g>
	<g id="XMLID_2792_">
		<g id="XMLID_2794_">
			<path id="XMLID_2796_" class="st5" d="M299.8,456.2v38.8c-3.4,0.9-6.7,1.6-10.2,2.3c-0.1,0-0.3,0.1-0.4,0.1
				c-3.4,0.7-6.7,1.2-10.2,1.6c-3.2,0.4-6.4,0.7-9.6,1c-1.5,0.1-3,0.2-4.5,0.3c-0.7,0-1.3,0.1-2,0.1c-1.1,0-2.2,0.1-3.3,0.1v-44.3
				c0,0,1.1,0.2,2.6,0.5l0.8,0.2c0.7,0.1,1.5,0.3,2.2,0.4l0.9,0.2c0.6,0.1,1.1,0.2,1.6,0.3l0.6,0.1c0.1,0,0.2,0,0.3,0l0.5,0.1
				c0.2,0,0.3,0,0.3,0c0.1,0,1.2,0,3.1-0.2l2-0.1l4.9-0.3l2.7-0.2c1.2-0.1,2.7-0.1,4.2-0.2l2.8-0.2l2.6-0.2c2.7-0.1,5.1-0.3,6.6-0.4
				c0.2,0,0.4,0,0.5,0C299.4,456.3,299.8,456.2,299.8,456.2z"/>
			<path id="XMLID_2795_" class="st6" d="M299.8,456.2v38.8c-3.4,0.9-6.7,1.6-10.2,2.3c-0.1,0-0.3,0.1-0.4,0.1
				c-3.4,0.7-6.7,1.2-10.2,1.6c-3.2,0.4-6.4,0.7-9.6,1v-42c0,0,0.3,0,0.9,0l11.7-0.7l2.8-0.2l4.2-0.2l2.6-0.2c0.8,0,1.7-0.1,2.6-0.1
				l1.9-0.1C298.4,456.3,299.8,456.2,299.8,456.2z"/>
		</g>
		<path id="XMLID_2793_" class="st7" d="M259.7,456.3c0,0,9.3,1.8,9.7,1.8c0.4,0,30.3-1.8,30.3-1.8l-10.1-1.6L259.7,456.3z"/>
	</g>
	<g id="XMLID_176_">
		<path id="XMLID_2791_" class="st8" d="M152.4,79.6v50.2h-5V79.6c0-1.2,1.1-2.2,2.5-2.2h0c0.7,0,1.3,0.2,1.8,0.6
			C152.1,78.5,152.4,79,152.4,79.6z"/>
		<path id="XMLID_2790_" class="st9" d="M158.1,109.1c0,1.8-3.7,6.5-8.2,6.5c-4.5,0-8.2-4.7-8.2-6.5c0-1.8,3.7-3.3,8.2-3.3
			C154.4,105.8,158.1,107.3,158.1,109.1z"/>
		<polygon id="XMLID_2789_" class="st8" points="150.1,140.9 138.3,140.9 138.3,127.8 150.1,125.7 		"/>
		<polygon id="XMLID_2788_" class="st9" points="161.8,140.9 150,140.9 150,125.7 161.8,127.7 		"/>
		<polygon id="XMLID_2787_" class="st10" points="150.2,173.8 140.4,173.8 135.9,136.8 150.2,135.1 		"/>
		<polygon id="XMLID_2786_" class="st11" points="159.9,173.8 150.2,173.8 150.2,135.1 164.5,136.8 		"/>
		<polygon id="XMLID_2785_" class="st12" points="150.3,183.8 128.7,183.8 128.7,170.6 150.3,166.5 		"/>
		<polygon id="XMLID_2784_" class="st13" points="171.9,183.8 150.3,183.8 150.3,166.5 171.9,169.8 		"/>
		<g id="XMLID_2774_">
			<path id="XMLID_2783_" class="st12" d="M184,181l-3.7,28.8l-1,8.2c0,0-13.8-0.3-27.3-0.4c-12.9-0.1-25.5-0.2-25.5,0.2l-0.8-7.9
				l-2.9-28.8l27.7-3.1l1.5,0.1L184,181z"/>
			<g id="XMLID_2775_">
				<path id="XMLID_2782_" class="st14" d="M150.5,207l-24.8,2.8l0.8,7.9c0-0.4,12.6-0.3,25.5-0.2v-10.3L150.5,207z"/>
				<polygon id="XMLID_2781_" class="st11" points="152,207.2 180.4,209.8 179.3,217.9 183.8,182.8 152,179.8 				"/>
				<polygon id="XMLID_2780_" class="st11" points="184,181 184,181 184,181 				"/>
				<path id="XMLID_2779_" class="st13" d="M152,207.2v10.3c13.5,0.2,27.3,0.4,27.3,0.4l1-8.2L152,207.2z"/>
				<polygon id="XMLID_2777_" class="st15" points="183.9,182.8 184,181 183.8,182.8 				"/>
				<polygon class="st15" points="150.7,176.2 150.5,176.2 122.6,179.3 123,182.8 150.5,179.7 152,179.8 183.8,182.8 184,181 
					184.2,179.3 				"/>
			</g>
		</g>
		<g id="XMLID_2764_">
			<path id="XMLID_2773_" class="st12" d="M184,215.8l-3.7,28.8l-1,8.2c0,0-13.8-0.3-27.3-0.4c-12.9-0.1-25.5-0.2-25.5,0.2l-0.8-7.9
				l-2.9-28.8l27.7-3.1l1.5,0.1L184,215.8z"/>
			<g id="XMLID_2765_">
				<path id="XMLID_2772_" class="st14" d="M150.5,241.9l-24.8,2.8l0.8,7.9c0-0.4,12.6-0.3,25.5-0.2V242L150.5,241.9z"/>
				<polygon id="XMLID_2771_" class="st11" points="152,242 180.4,244.6 179.3,252.7 183.8,217.6 152,214.7 				"/>
				<polygon id="XMLID_2770_" class="st11" points="184,215.8 184,215.8 184,215.8 				"/>
				<path id="XMLID_2769_" class="st13" d="M152,242v10.3c13.5,0.2,27.3,0.4,27.3,0.4l1-8.2L152,242z"/>
				<polygon id="XMLID_2767_" class="st15" points="183.9,217.6 184,215.8 183.8,217.6 				"/>
				<polygon class="st15" points="150.7,211 150.5,211 122.6,214.1 123,217.6 150.5,214.5 152,214.7 183.8,217.6 184,215.8 
					184.2,214.1 				"/>
			</g>
		</g>
		<g id="XMLID_2753_">
			<path id="XMLID_2763_" class="st12" d="M184,251.1l-3.7,28.8l-1,8.2c0,0-13.8-0.3-27.3-0.4c-12.9-0.1-25.5-0.2-25.5,0.2l-0.8-7.9
				l-2.9-28.8l27.7-3.1l1.5,0.1L184,251.1z"/>
			<g id="XMLID_2754_">
				<path id="XMLID_2762_" class="st14" d="M150.5,277.1l-24.8,2.8l0.8,7.9c0-0.4,12.6-0.3,25.5-0.2v-10.3L150.5,277.1z"/>
				<polygon id="XMLID_2761_" class="st11" points="152,277.3 180.4,279.9 179.3,288 183.8,252.9 152,249.9 				"/>
				<polygon id="XMLID_2759_" class="st11" points="184,251.1 184,251.1 184,251.1 				"/>
				<path id="XMLID_2758_" class="st13" d="M152,277.3v10.3c13.5,0.2,27.3,0.4,27.3,0.4l1-8.2L152,277.3z"/>
				<polygon id="XMLID_2756_" class="st15" points="183.9,252.9 184,251.1 183.8,252.9 				"/>
				<polygon class="st15" points="150.7,246.3 150.5,246.3 122.6,249.4 123,252.9 150.5,249.8 152,249.9 183.8,252.9 184,251.1 
					184.2,249.3 				"/>
			</g>
		</g>
		<g id="XMLID_2742_">
			<path id="XMLID_2752_" class="st12" d="M184,286.4l-3.7,28.8l-1,8.2c0,0-13.8-0.3-27.3-0.4c-12.9-0.1-25.5-0.2-25.5,0.2l-0.8-7.9
				l-2.9-28.8l27.7-3.1l1.5,0.1L184,286.4z"/>
			<g id="XMLID_2743_">
				<path id="XMLID_2751_" class="st14" d="M150.5,312.4l-24.8,2.8l0.8,7.9c0-0.4,12.6-0.3,25.5-0.2v-10.3L150.5,312.4z"/>
				<polygon id="XMLID_2750_" class="st11" points="152,312.6 180.4,315.2 179.3,323.3 183.8,288.1 152,285.2 				"/>
				<polygon id="XMLID_2749_" class="st11" points="184,286.4 184,286.4 184,286.4 				"/>
				<path id="XMLID_2747_" class="st13" d="M152,312.6v10.3c13.5,0.2,27.3,0.4,27.3,0.4l1-8.2L152,312.6z"/>
				<polygon id="XMLID_2745_" class="st15" points="183.9,288.1 184,286.4 183.8,288.1 				"/>
				<polygon class="st15" points="150.7,281.6 150.5,281.5 122.6,284.6 123,288.1 150.5,285.1 152,285.2 183.8,288.1 184,286.4 
					184.2,284.6 				"/>
			</g>
		</g>
		<g id="XMLID_2686_">
			<path id="XMLID_2741_" class="st12" d="M184,322.6l-3.7,28.8l-1,8.2c0,0-13.8-0.3-27.3-0.4c-12.9-0.1-25.5-0.2-25.5,0.2l-0.8-7.9
				l-2.9-28.8l27.7-3.1l1.5,0.1L184,322.6z"/>
			<g id="XMLID_2687_">
				<path id="XMLID_2738_" class="st14" d="M150.5,348.6l-24.8,2.8l0.8,7.9c0-0.4,12.6-0.3,25.5-0.2v-10.3L150.5,348.6z"/>
				<polygon id="XMLID_2737_" class="st11" points="152,348.8 180.4,351.4 179.3,359.5 183.8,324.4 152,321.4 				"/>
				<polygon id="XMLID_2736_" class="st11" points="184,322.6 184,322.6 184,322.6 				"/>
				<path id="XMLID_2735_" class="st13" d="M152,348.8v10.3c13.5,0.2,27.3,0.4,27.3,0.4l1-8.2L152,348.8z"/>
				<polygon id="XMLID_2721_" class="st15" points="183.9,324.4 184,322.6 183.8,324.4 				"/>
				<polygon class="st15" points="150.7,317.8 150.5,317.8 122.6,320.9 123,324.4 150.5,321.3 152,321.4 183.8,324.4 184,322.6 
					184.2,320.9 				"/>
			</g>
		</g>
		<g id="XMLID_2674_">
			<path id="XMLID_2685_" class="st12" d="M184,358.1l-3.7,28.8l-1,8.2c0,0-13.8-0.3-27.3-0.4c-12.9-0.1-25.5-0.2-25.5,0.2l-0.8-7.9
				l-2.9-28.8l27.7-3.1l1.5,0.1L184,358.1z"/>
			<g id="XMLID_2676_">
				<path id="XMLID_2684_" class="st14" d="M150.5,384.2l-24.8,2.8l0.8,7.9c0-0.4,12.6-0.3,25.5-0.2v-10.3L150.5,384.2z"/>
				<polygon id="XMLID_2683_" class="st11" points="152,384.3 180.4,386.9 179.3,395.1 183.8,359.9 152,357 				"/>
				<polygon id="XMLID_2682_" class="st11" points="184,358.1 184,358.1 184,358.1 				"/>
				<path id="XMLID_2681_" class="st13" d="M152,384.3v10.3c13.5,0.2,27.3,0.4,27.3,0.4l1-8.2L152,384.3z"/>
				<polygon id="XMLID_2678_" class="st15" points="183.9,359.9 184,358.1 183.8,359.9 				"/>
				<polygon class="st15" points="150.7,353.3 150.5,353.3 122.6,356.4 123,359.9 150.5,356.8 152,357 183.8,359.9 184,358.1 
					184,358.1 184.2,356.4 				"/>
			</g>
		</g>
		<path id="XMLID_2673_" class="st12" d="M191.1,488.3c-2.8-1.1-5.6-2.3-8.3-3.5c-1.1-0.5-2.2-1-3.3-1.5c-0.9-0.4-1.8-0.9-2.8-1.4
			c-1.8-0.9-3.7-1.9-5.5-2.9c-7.3-4-14.4-8.4-21.1-13.4c-3.8-2.8-7.5-5.8-11.1-8.9c-1.5-1.2-2.9-2.5-4.3-3.8
			c-0.4-0.4-0.8-0.8-1.2-1.1c-3.9-3.7-7.6-7.5-11.2-11.5l1-7.6l0.7-5.8h56.5l1,5.8L191.1,488.3z"/>
		<g id="XMLID_2667_">
			<path id="XMLID_2672_" class="st12" d="M184,393.4l-4.7,36.9c0,0-13.8-0.3-27.3-0.4c-12.9-0.1-25.5-0.2-25.5,0.2l-3.7-36.7
				l27.7-3.1l1.5,0.1L184,393.4z"/>
			<g id="XMLID_2668_">
				<path id="XMLID_2671_" class="st11" d="M184,393.4l-4.7,36.9c0,0-13.8-0.3-27.3-0.4v-39.5L184,393.4z"/>
				<g id="XMLID_2669_">
					<polygon id="XMLID_2670_" class="st15" points="183.9,395.2 150.5,392.1 123,395.2 122.6,391.7 150.5,388.6 150.7,388.6 
						184.2,391.7 					"/>
				</g>
			</g>
		</g>
		<rect id="XMLID_2666_" x="147.1" y="176.2" class="st16" width="7" height="256.7"/>
		<polygon id="XMLID_2663_" class="st17" points="150.5,427 150.5,432.8 123.5,432.8 124.2,427 		"/>
		<path id="XMLID_2662_" class="st18" d="M191.1,488.3c-2.8-1.1-5.6-2.3-8.3-3.5c-1.1-0.5-2.2-1-3.3-1.5c-0.9-0.4-1.8-0.9-2.8-1.4
			c-1.8-0.9-3.7-1.9-5.5-2.9c-7.3-4-14.4-8.4-21.1-13.4l0.2-32.9l0-2.9l0-2.9h30.3l1,5.8L191.1,488.3z"/>
		<polygon id="XMLID_2661_" class="st19" points="181.7,432.8 150.4,432.8 150.4,427 180.8,427 		"/>
		<path id="XMLID_177_" class="st9" d="M152.4,79.6v50.2h-2.5V77.4h0c0.7,0,1.3,0.2,1.8,0.6C152.1,78.5,152.4,79,152.4,79.6z"/>
	</g>
	<g id="XMLID_58_">
		<path id="XMLID_175_" class="st20" d="M364.6,363.6v99.8c-4.1,3.2-8.4,6.2-12.8,9c-1.3,0.8-2.5,1.6-3.8,2.4
			c-0.7,0.4-1.4,0.8-2.1,1.2c-0.7,0.4-1.5,0.9-2.2,1.3c-0.7,0.4-1.4,0.8-2.1,1.1c-0.7,0.4-1.3,0.7-2,1.1c-1.2,0.7-2.4,1.3-3.7,1.9
			c-1.6,0.8-3.1,1.6-4.7,2.3c-5.3,2.5-10.7,4.7-16.3,6.7c-8.2,2.9-16.6,5.2-25.3,6.8c-0.1,0-0.3,0.1-0.4,0.1V363.6H364.6z"/>
		<path id="XMLID_174_" class="st21" d="M289.6,363.6v133.7c-0.1,0-0.3,0.1-0.4,0.1c-3.4,0.7-6.7,1.2-10.2,1.6V361.8L289.6,363.6z"
			/>
		<rect id="XMLID_168_" x="298.2" y="375.2" class="st22" width="9.6" height="16.5"/>
		<rect id="XMLID_166_" x="298.2" y="396.9" class="st22" width="9.6" height="9"/>
		<rect id="XMLID_164_" x="314.1" y="396.9" class="st22" width="9.6" height="9"/>
		<rect id="XMLID_162_" x="330" y="396.9" class="st22" width="9.6" height="9"/>
		<rect id="XMLID_134_" x="345.9" y="396.9" class="st22" width="9.6" height="9"/>
		<rect id="XMLID_127_" x="298.2" y="412.5" class="st22" width="9.6" height="9"/>
		<rect id="XMLID_119_" x="314.1" y="412.5" class="st22" width="9.6" height="9"/>
		<rect id="XMLID_108_" x="330" y="412.5" class="st22" width="9.6" height="9"/>
		<rect id="XMLID_107_" x="345.9" y="412.5" class="st22" width="9.6" height="9"/>
		<rect id="XMLID_106_" x="298.2" y="428.1" class="st22" width="9.6" height="9"/>
		<rect id="XMLID_104_" x="314.1" y="428.1" class="st22" width="9.6" height="9"/>
		<rect id="XMLID_102_" x="330" y="428.1" class="st22" width="9.6" height="9"/>
		<rect id="XMLID_100_" x="345.9" y="428.1" class="st22" width="9.6" height="9"/>
		<rect id="XMLID_97_" x="298.2" y="443.7" class="st22" width="9.6" height="9"/>
		<rect id="XMLID_91_" x="314.1" y="443.7" class="st22" width="9.6" height="9"/>
		<rect id="XMLID_90_" x="330" y="443.7" class="st22" width="9.6" height="9"/>
		<rect id="XMLID_88_" x="345.9" y="443.7" class="st22" width="9.6" height="9"/>
		<rect id="XMLID_80_" x="298.2" y="459.3" class="st22" width="9.6" height="9"/>
		<rect id="XMLID_79_" x="314.1" y="459.3" class="st22" width="9.6" height="9"/>
		<rect id="XMLID_77_" x="330" y="459.3" class="st22" width="9.6" height="9"/>
		<rect id="XMLID_76_" x="345.9" y="459.3" class="st22" width="9.6" height="9"/>
		<rect id="XMLID_75_" x="298.2" y="474.9" class="st22" width="9.6" height="9"/>
		<rect id="XMLID_74_" x="314.1" y="474.9" class="st22" width="9.6" height="9"/>
		<path id="XMLID_73_" class="st22" d="M339.6,474.9v4.7c-1.2,0.7-2.4,1.3-3.7,1.9c-1.6,0.8-3.1,1.6-4.7,2.3H330v-9H339.6z"/>
		<path id="XMLID_72_" class="st22" d="M348,474.9c-0.7,0.4-1.4,0.8-2.1,1.2v-1.2H348z"/>
		<rect id="XMLID_71_" x="314.4" y="375.2" class="st22" width="9.6" height="16.5"/>
		<rect id="XMLID_70_" x="330.5" y="375.2" class="st22" width="9.6" height="16.5"/>
		<rect id="XMLID_69_" x="346.7" y="375.2" class="st22" width="9.6" height="16.5"/>
		<polygon id="XMLID_68_" class="st22" points="279.1,361.8 355.9,361.8 364.6,363.6 289.6,363.6 		"/>
		<rect id="XMLID_67_" x="296.5" y="338.2" class="st22" width="2.1" height="24.8"/>
		<rect id="XMLID_64_" x="340.4" y="338" class="st22" width="2.1" height="24.8"/>
		<rect id="XMLID_62_" x="306.1" y="354.7" class="st20" width="29.9" height="8.2"/>
		<polygon id="XMLID_60_" class="st23" points="306.1,362.8 301.7,362 301.7,353.8 306.1,354.7 		"/>
		<polygon id="XMLID_59_" class="st24" points="301.7,353.8 331.8,353.8 336.1,354.7 306.1,354.7 301.4,353.8 		"/>
	</g>
	<g id="XMLID_43_">
		<g id="XMLID_48_">
			<polygon id="XMLID_57_" class="st5" points="221.1,383.7 221.1,425.9 196,427.3 188,425.9 188,383.7 196,385.2 196.1,385.2 			
				"/>
			<path id="XMLID_54_" class="st5" d="M221.1,383.7v113.4c-1.9-0.4-3.8-0.8-5.6-1.2c-5.4-1.2-10.7-2.8-15.9-4.5
				c-1.2-0.4-2.3-0.8-3.5-1.2c-1.7-0.6-3.3-1.2-4.9-1.8c-1.1-0.4-2.1-0.9-3.1-1.3V383.7H221.1z"/>
			<path id="XMLID_53_" class="st6" d="M221.1,383.7v113.4c-1.9-0.4-3.8-0.8-5.6-1.2c-5.4-1.2-10.7-2.8-15.9-4.5
				c-1.2-0.4-2.3-0.8-3.5-1.2v-105c0,0,0.5,0,1.2-0.1c0.3,0,0.7,0,1.2-0.1c0.2,0,0.5,0,0.8,0c0.3,0,0.6,0,0.9,0c0.2,0,0.5,0,0.7,0
				c0.4,0,0.9,0,1.3-0.1c0.6,0,1.3-0.1,2-0.1c0.4,0,0.7,0,1.1-0.1l3.5-0.2c1.2-0.1,2.3-0.1,3.4-0.2c0.8,0,1.6-0.1,2.4-0.1
				c0.6,0,1.2-0.1,1.8-0.1c0,0,0,0,0,0c0.3,0,0.6,0,1-0.1c0.3,0,0.6,0,0.9,0c0.7,0,1.3-0.1,1.8-0.1c0.1,0,0.2,0,0.3,0
				C220.9,383.7,221.1,383.7,221.1,383.7z"/>
		</g>
		<path id="XMLID_44_" class="st7" d="M188,383.7c0,0,7.7,1.5,8.1,1.5c0.3,0,25.1-1.5,25.1-1.5l-8.4-1.3L188,383.7z"/>
	</g>
	<g id="XMLID_35_">
		<g id="XMLID_37_">
			<path id="XMLID_42_" class="st5" d="M265,426.9v73.4c-3,0.2-6,0.2-9.1,0.2c-13.9,0-27.4-1.6-40.4-4.6c-5.4-1.2-10.7-2.8-15.9-4.5
				v-64.5c0,0,1,0.2,2.4,0.5l3.2,0.6l1.4,0.3l7.7,1.5l0.7,0.1c0.3,0,0.5,0.1,0.6,0.1c0.1,0,1.7-0.1,4.1-0.2l4.8-0.3
				c1.5-0.1,3.2-0.2,4.9-0.3c0.3,0,0.7,0,1.1-0.1c3.6-0.2,7.4-0.4,11.3-0.7l1.4-0.1c1.5-0.1,2.9-0.2,4.3-0.3l2.2-0.1
				c4.4-0.3,8.4-0.5,11.2-0.7c0.3,0,0.6,0,0.9,0C263.7,426.9,265,426.9,265,426.9z"/>
			<path id="XMLID_40_" class="st6" d="M265,426.9v73.4c-3,0.2-6,0.2-9.1,0.2c-13.9,0-27.4-1.6-40.4-4.6v-66c0,0,0.4,0,1,0
				c0.2,0,0.5,0,0.8,0l1.1-0.1l1.2-0.1l4.8-0.3c0.3,0,0.6,0,0.9,0l1.9-0.1l2.1-0.1c0.4,0,0.7,0,1.1-0.1l2.1-0.1
				c0.8,0,1.6-0.1,2.3-0.1l3.3-0.2c1.6-0.1,3.2-0.2,4.8-0.3l3.2-0.2c0.4,0,0.7,0,1.1-0.1l3.3-0.2l2.1-0.1l2-0.1l1.7-0.1
				C261.5,427.1,265,426.9,265,426.9z"/>
		</g>
		<path id="XMLID_36_" class="st7" d="M199.6,426.9c0,0,15.2,3,15.9,3c0.7,0,49.5-3,49.5-3l-16.6-2.6L199.6,426.9z"/>
	</g>
	<g id="XMLID_30_">
		<g id="XMLID_32_">
			<path id="XMLID_34_" class="st5" d="M400.4,426.7c-8.6,11.8-18.6,22.4-29.7,31.8c-0.3,0.2-0.6,0.5-0.9,0.7
				c-5.7,4.8-11.8,9.2-18.1,13.2c-2.7,1.7-5.4,3.4-8.2,4.9c-0.7,0.4-1.4,0.8-2.1,1.1c-1.9,1-3.8,2-5.7,3v-54.9c0,0,0.5,0.1,1.4,0.3
				l1,0.2c1.2,0.2,2.7,0.5,4.3,0.8l1.9,0.4l5.2,1c0.7,0.1,1.2,0.2,1.6,0.3c0.3,0,0.5,0.1,0.6,0.1c0.1,0,0.8,0,1.8-0.1l1.2-0.1
				l1.3-0.1c2.1-0.1,4.7-0.3,7.8-0.5l9.7-0.6c2.3-0.1,4.6-0.3,6.9-0.4l4.5-0.3l3.2-0.2l2-0.1l2.8-0.2c1.5-0.1,2.8-0.2,4-0.2l1.3-0.1
				l1-0.1C399.7,426.8,400.1,426.7,400.4,426.7z"/>
			<path id="XMLID_33_" class="st6" d="M400.4,426.7c-8.6,11.8-18.6,22.4-29.7,31.8c-0.3,0.2-0.6,0.5-0.9,0.7
				c-5.7,4.8-11.8,9.2-18.1,13.2v-42.8l3-0.2l1.3-0.1l24.3-1.5l4.5-0.3l3.2-0.2l2-0.1l2.8-0.2c1.5-0.1,2.8-0.2,4-0.2l1.3-0.1l1-0.1
				C399.7,426.8,400.1,426.7,400.4,426.7z"/>
		</g>
		<path id="XMLID_31_" class="st7" d="M401.3,426.7c0,0-0.3,0-0.9,0c-0.3,0-0.8,0-1.3,0.1l-1,0.1l-1.3,0.1c-1.2,0.1-2.6,0.2-4,0.2
			l-2.8,0.2l-2,0.1l-3.2,0.2l-4.5,0.3c-9.1,0.6-18.9,1.1-24.3,1.5l-1.3,0.1c-1.7,0.1-2.8,0.2-3,0.2c-0.1,0-0.3,0-0.6-0.1
			c-2.1-0.3-9.2-1.7-13-2.4l-1-0.2c-0.9-0.2-1.4-0.3-1.4-0.3l48.8-2.6l15.8,2.4L401.3,426.7z"/>
	</g>
	<rect id="XMLID_29_" x="104.1" y="376.5" class="st4" width="13.2" height="21.7"/>
	<polygon id="XMLID_28_" class="st4" points="268.2,388 268.2,379.6 255,379.6 255,390.9 246.5,390.9 246.5,382.3 233.3,382.3 
		233.3,404 243.9,404 246.5,404 255,404 257,404 266.6,404 268.2,404 279.8,404 279.8,388 	"/>
	<g id="XMLID_16_">
		<g id="XMLID_22_">
			<path id="XMLID_27_" class="st5" d="M237.9,499.6c5.9,0.6,11.9,0.9,18,0.9c2.4,0,4.7,0,7.1-0.1v-38.5c0,0-7.4,0.5-14.1,0.9
				c-0.3,0-0.6,0-0.9,0c-0.7,0-1.4,0.1-2.1,0.1c-0.7,0-1.3,0.1-2,0.1c-0.3,0-0.7,0-1,0.1c-0.1,0-0.2,0-0.3,0c-0.2,0-0.4,0-0.6,0
				c-1.1,0.1-2,0.1-2.7,0.2c-0.1,0-0.1,0-0.2,0c0,0-0.1,0-0.1,0c-0.1,0-0.2,0-0.2,0c-0.2,0-0.3,0-0.4,0c-0.2,0-0.4,0-0.4,0
				c-0.3,0-8.1-1.5-8.1-1.5v36.7L237.9,499.6z"/>
			<path id="XMLID_26_" class="st5" d="M237.9,499.6c5.9,0.6,11.9,0.9,18,0.9c2.4,0,4.7,0,7.1-0.1v-38.5h-33.1v36.7L237.9,499.6z"/>
			<path id="XMLID_23_" class="st6" d="M263,461.9v38.5c-2.3,0.1-4.7,0.1-7.1,0.1c-6.1,0-12.1-0.3-18-0.9v-36.2c0,0,0.2,0,0.4,0
				c0.2,0,0.4,0,0.6,0c0.1,0,0.2,0,0.3,0c0.7,0,1.6-0.1,2.7-0.2c0.2,0,0.5,0,0.7,0h0.2c0.2,0,0.5,0,0.7,0c0.1,0,0.2,0,0.2,0
				c1.3-0.1,2.7-0.1,4.1-0.2c0.3,0,0.6,0,0.9,0c1-0.1,1.9-0.1,2.9-0.2c0.4,0,0.8,0,1.1-0.1c0.8,0,1.5-0.1,2.2-0.1c0.2,0,0.4,0,0.5,0
				c0.5,0,0.9-0.1,1.3-0.1c0.4,0,0.8,0,1.2-0.1c0.7,0,1.3-0.1,1.9-0.1C261.9,462,263,461.9,263,461.9z"/>
		</g>
		<path id="XMLID_21_" class="st7" d="M229.9,461.9c0,0,7.7,1.5,8.1,1.5c0.3,0,25.1-1.5,25.1-1.5l-8.4-1.3L229.9,461.9z"/>
	</g>
</g>
</svg>
